<svg className='allicons' width="32" height="32" viewBox="0 0 32 32" fill="none" xmlns="http://www.w3.org/2000/svg">
<path fill-rule="evenodd" clip-rule="evenodd" d="M10.7153 6.90776C10.3652 7.38373 10.18 7.8408 10.147 8.20446C10.1294 8.40739 10.3136 8.87506 10.2941 8.841L10.3136 8.87506C10.4141 9.04566 10.5632 9.22381 10.7716 9.41189C11.2756 9.86688 12.0177 10.272 12.8451 10.6116C12.9553 10.6569 13.0659 10.7005 13.1764 10.7426C12.1388 9.62118 11.4889 8.61725 11.0831 7.7864C10.9261 7.46484 10.8064 7.17077 10.7153 6.90776ZM12.4306 5.40221C13.4142 4.81939 14.641 4.42859 15.9891 4.42859C17.3792 4.42859 18.6008 4.84702 19.5707 5.46375L19.5713 5.50059C19.571 5.50667 19.5703 5.51769 19.5688 5.5335C19.5647 5.57828 19.5543 5.66194 19.5289 5.7813C19.4782 6.01931 19.3665 6.40378 19.1199 6.90874C18.6769 7.81576 17.7879 9.13308 16.0001 10.6941C14.2122 9.13308 13.3232 7.81576 12.8803 6.90874C12.6337 6.40378 12.522 6.01931 12.4712 5.7813C12.4458 5.66194 12.4355 5.57828 12.4313 5.5335C12.4298 5.51769 12.4291 5.50668 12.4288 5.5006L12.4306 5.40221ZM12.0001 12.4264C11.1598 12.0753 10.2708 11.6122 9.56164 11.0104C9.29639 11.0817 8.94601 11.246 8.57357 11.5013C8.15238 11.79 7.78284 12.1404 7.54905 12.4608C7.05424 13.1389 6.74868 14.0358 6.71436 15.001V25.2857H8.14314V15H10.1431V27.3247C10.1425 27.3588 10.142 27.4501 10.1419 27.5703C10.2161 27.5705 10.2766 27.5709 10.3133 27.5714H11.5715V22.3778L12.1502 22.109C12.3874 21.9988 12.6291 21.7999 12.836 21.5006C13.0432 21.201 13.2001 20.8218 13.2775 20.3935L13.4261 19.5714H18.5951L18.7435 20.3939C18.8204 20.82 18.9755 21.1983 19.1807 21.4987C19.3857 21.7989 19.6258 22.0009 19.8627 22.115L20.4286 22.3877V27.5714H21.6869C21.7235 27.5709 21.784 27.5705 21.8582 27.5703C21.8581 27.4501 21.8578 27.3588 21.8572 27.3247L21.8568 27.3065L21.857 15H23.857V25.2857H25.2858V15.0206C25.2577 14.0491 24.9541 13.1446 24.4583 12.4618C24.2243 12.1397 23.8543 11.7882 23.4324 11.4994C23.0987 11.2711 22.7829 11.1163 22.5303 11.036C21.8073 11.6515 20.8798 12.117 20.0123 12.4649C20.0082 12.4665 20.0041 12.4681 20.0001 12.4698V17H18.0001V13.1335C17.7803 13.1939 17.573 13.2472 17.3831 13.2938C17.0232 13.3821 16.7209 13.4473 16.5069 13.4906C16.3998 13.5123 16.3147 13.5285 16.2552 13.5396L16.1857 13.5522L16.1663 13.5557L16.1605 13.5566L16.158 13.5571C16.158 13.5571 16.158 13.5571 16.1663 13.5557L16.158 13.5571L15.9851 13.5866L15.8129 13.5558L15.8099 13.5553L15.8043 13.5542L15.7856 13.5508L15.7187 13.538C15.6615 13.5269 15.5797 13.5106 15.4769 13.4888C15.2714 13.4454 14.9809 13.3801 14.6341 13.2916C14.44 13.2421 14.2268 13.1849 14.0001 13.1198V17H12.0001V12.4264ZM18.7747 10.7954C18.9391 10.7365 19.1041 10.6742 19.268 10.6085C20.1181 10.2676 20.8591 9.86501 21.3374 9.42117C21.467 9.30094 21.5685 9.18702 21.6461 9.07793L21.774 8.85799C21.774 8.85799 21.8733 8.48566 21.8386 8.30971C21.764 7.93023 21.5653 7.48181 21.2428 7.02566C21.1578 7.25775 21.051 7.51207 20.917 7.7864C20.5049 8.63028 19.8409 9.65272 18.7747 10.7954ZM23.7206 9.36229C24.0158 9.5021 24.3002 9.66983 24.5619 9.84895C25.1346 10.2408 25.6834 10.7452 26.0765 11.2866C26.8328 12.328 27.2499 13.637 27.2854 14.9804L27.2861 15.0068L27.2858 27.2857H23.857V27.2985C23.8585 27.4045 23.8585 27.7223 23.8581 28.0013L23.857 28.5733L23.8543 29.5745L22.8539 29.5714L22.3331 29.5703C22.0547 29.5699 21.7793 29.57 21.7152 29.5713L21.6954 29.5716L10.285 29.5714C10.2209 29.5702 9.94545 29.5699 9.66705 29.5703L9.14695 29.5714L8.14596 29.5745L8.1432 28.5742L8.14205 28.0014C8.14169 27.7223 8.1416 27.4045 8.14314 27.2984V27.2857H4.71436V14.9678L4.71488 14.9515C4.75834 13.6154 5.17868 12.3162 5.93348 11.2819C6.32582 10.7442 6.87269 10.2424 7.44288 9.85159C7.71799 9.66303 8.0181 9.4869 8.32929 9.34247C8.18288 8.94516 8.11275 8.50688 8.15478 8.02835L8.15497 8.02619C8.28303 6.60356 9.29528 5.20287 10.6405 4.19566C12.0191 3.16352 13.8895 2.42859 15.9891 2.42859C18.0959 2.42859 19.9135 3.1722 21.2625 4.2091C22.5894 5.22905 23.5396 6.59555 23.8006 7.92197M13.5715 27.5714H18.4286V23.5732C18.0814 23.3147 17.7789 22.9925 17.529 22.6266C17.308 22.303 17.1293 21.9471 16.9946 21.5714H15.0258C14.8889 21.9518 14.7068 22.3116 14.4811 22.638C14.2283 23.0036 13.9224 23.3246 13.5715 23.5807V27.5714Z" fill="#1C1C1C"/>
</svg>
