<svg width="32" height="32" viewBox="0 0 32 32" fill="none" xmlns="http://www.w3.org/2000/svg">
<path fill-rule="evenodd" clip-rule="evenodd" d="M16.0237 4.05444L2.61011 10.3713L3.03616 12.276H5.18917V14H7V21.2743H5.08729V23.1076H3.03457V27.8576H29.011V23.1076H26.9013V21.2743H25V14H26.8198V12.276H28.9635L29.3908 10.3719L16.0237 4.05444ZM15 14H13V21.2743H15V14ZM11 14H9V21.2743H11V14ZM24.8198 12H7.18917V10.4256L16.0222 6.26584L24.8198 10.4237V12ZM7.08729 23.2743V25.1076H5.03457V25.8576H27.011V25.1076H24.9413L24.9043 23.2743H7.08729ZM17 14V21.2743H19V14H17ZM23 21.2743V14H21V21.2743H23Z" fill="#1C1C1C"/>
</svg>
