<svg width="32" height="32" viewBox="0 0 32 32" fill="none" xmlns="http://www.w3.org/2000/svg">
<path fill-rule="evenodd" clip-rule="evenodd" d="M9.42994 2L9.3923 2.00285C8.14414 2.09722 6.98606 2.6857 6.16707 3.63628C5.35536 4.57842 4.94063 5.80159 5.00687 7.04503V10.8047L2 20V22V27H5.85718V29.5714H7.85718V27H25.2858V29.5714H27.2858V27H30V22V20L26.9997 10.8267L26.9932 7.04412C27.0592 5.80101 26.6445 4.5782 25.833 3.63628C25.014 2.68569 23.8558 2.09722 22.6077 2.00285L22.5701 2H9.42994ZM18.1429 11.5027C19.7442 11.2128 21.3988 11.2134 22.9999 11.5044L23 13.6385C21.3988 13.9295 19.7442 13.93 18.1428 13.6401L18.1429 11.5027ZM25.3914 12.4286H25V15.2598L23.8411 15.5103C21.6912 15.9724 19.4436 15.9726 17.2936 15.5106L17.2872 15.5092L16.1428 15.2554V12.4286H15.8571V15.2554L14.7063 15.5106C12.5564 15.9727 10.31 15.9726 8.16004 15.5106L7 15.2598V12.4286H6.60859L4.08762 20H27.9124L25.3914 12.4286ZM7.00687 9.88168V6.98701L7.00509 6.95719C6.96095 6.21903 7.20554 5.49505 7.68227 4.94172C8.15089 4.3978 8.80598 4.06223 9.50842 4H22.4916C23.194 4.06223 23.8491 4.39781 24.3178 4.94172C24.7945 5.49503 25.0391 6.21901 24.9949 6.95719L24.9931 6.98787L24.9981 9.88274L23.8412 9.63252C21.6912 9.17047 19.4436 9.17019 17.2936 9.63224L17.2871 9.63366L16.1428 9.88753V10.4286H15.8571V9.88752L14.7128 9.63365L14.7063 9.63224C12.5564 9.17019 10.31 9.17019 8.16004 9.63224L7.00687 9.88168ZM4 22H28V25H4V22ZM9 13.6385V11.5044C10.6012 11.2134 12.2558 11.2128 13.8571 11.5027V13.6401C12.2558 13.93 10.6012 13.9295 9 13.6385Z" fill="#1C1C1C"/>
</svg>
