<svg width="32" height="32" viewBox="0 0 32 32" fill="none" xmlns="http://www.w3.org/2000/svg">
<path fill-rule="evenodd" clip-rule="evenodd" d="M23.412 6.4722L23.1378 4.49109L16.8611 5.35999L19.6585 11.1274C19.4914 11.1041 19.31 11.0823 19.1155 11.0638C18.0429 10.9617 16.5579 10.9574 14.9128 11.3537C13.9506 11.5855 12.9468 11.9515 11.9482 12.5021C11.4847 11.8645 10.994 11.1707 10.452 10.3717H12.335V8.3717H6.44098V10.3717H8.04708L8.16555 10.5511C8.96106 11.7556 9.64839 12.738 10.2818 13.611C9.66899 14.0955 9.06843 14.6636 8.49154 15.3276C7.78523 15.0528 7.02792 14.9078 6.25549 14.9078C5.02883 14.9078 3.83023 15.2738 2.81129 15.9588C1.79242 16.6438 0.999223 17.6167 0.531071 18.7538C0.0629461 19.8909 -0.059457 21.1418 0.179115 22.3485C0.417692 23.5552 1.00673 24.6645 1.87268 25.5358C2.73869 26.4071 3.84281 27.0012 5.04573 27.2419C6.24867 27.4827 7.49549 27.3591 8.62828 26.887C9.761 26.4149 10.7282 25.6159 11.4082 24.592C11.8969 23.856 12.2217 23.0274 12.3657 22.1627L18.1719 22.1891L17.8797 20.9552L17.8782 20.9488L17.8701 20.9109C17.865 20.886 17.8581 20.8511 17.85 20.8068L17.8855 20.7833L17.8317 20.7018C17.8066 20.5506 17.7763 20.3381 17.7526 20.0787C17.7007 19.51 17.6816 18.7332 17.8072 17.8905C18.0442 16.3 18.779 14.5333 20.7614 13.4013L22.0779 16.1156C21.1659 16.7887 20.4537 17.7009 20.0202 18.7538C19.5521 19.8909 19.4297 21.1418 19.6683 22.3485C19.9068 23.5552 20.4959 24.6645 21.3618 25.5358C22.2278 26.4071 23.3319 27.0012 24.5348 27.2419C25.7378 27.4827 26.9846 27.3591 28.1174 26.887C29.2501 26.4149 30.2173 25.6159 30.8973 24.592C31.5772 23.5681 31.9398 22.3651 31.9398 21.1348C31.9398 19.4853 31.2886 17.9021 30.1274 16.7338C28.9661 15.5654 27.3897 14.9078 25.7446 14.9078C25.1008 14.9078 24.4648 15.0086 23.8584 15.2035L19.8618 6.96367L23.412 6.4722ZM22.9732 17.9615L24.6981 21.5177L27.2688 22.4068L27.9226 20.5166L26.1357 19.8986L24.7442 17.0298C25.07 16.9492 25.4058 16.9078 25.7446 16.9078C26.8553 16.9078 27.9217 17.3517 28.7089 18.1437C29.4963 18.936 29.9398 20.0118 29.9398 21.1348C29.9398 21.9722 29.693 22.7902 29.2312 23.4855C28.7695 24.1808 28.1139 24.7217 27.3481 25.0409C26.5823 25.36 25.7399 25.4434 24.9273 25.2808C24.1147 25.1182 23.3674 24.7166 22.7803 24.1259C22.1932 23.5351 21.7926 22.7817 21.6303 21.9606C21.4679 21.1394 21.5513 20.2884 21.8696 19.5152C22.1161 18.9166 22.4946 18.3859 22.9732 17.9615ZM11.4733 15.2188C11.0576 15.5516 10.6457 15.9327 10.243 16.3691C10.3794 16.4845 10.5113 16.6061 10.6383 16.7338C11.5689 17.6701 12.1719 18.8729 12.3747 20.1627L15.0797 20.175C13.8697 18.3888 12.9159 17.1274 11.9524 15.8531L11.9485 15.8481C11.7908 15.6394 11.6327 15.4304 11.4733 15.2188ZM15.8116 17.7176C14.9844 16.5468 14.2641 15.5943 13.5492 14.6489L13.1537 14.1254C13.9181 13.7309 14.6716 13.469 15.3812 13.298C16.3457 13.0657 17.2493 12.997 18.0171 13.0063C16.6423 14.4101 16.0493 16.1174 15.829 17.5958C15.8229 17.6365 15.8171 17.6771 15.8116 17.7176ZM7.7665 20.1418L10.3361 20.1534C10.1571 19.3981 9.77347 18.7008 9.21978 18.1437C9.15043 18.074 9.07892 18.0069 9.0054 17.9426C8.56998 18.5892 8.15428 19.3188 7.7665 20.1418ZM10.327 22.1534C10.2106 22.6259 10.0135 23.0769 9.7421 23.4855C9.28039 24.1808 8.62479 24.7217 7.85892 25.0409C7.09312 25.36 6.2508 25.4434 5.4382 25.2808C4.62559 25.1182 3.8783 24.7166 3.2912 24.1259C2.70403 23.5351 2.30348 22.7817 2.14114 21.9606C1.9788 21.1394 2.06218 20.2884 2.38047 19.5152C2.69874 18.7421 3.2373 18.0824 3.92712 17.6186C4.61686 17.1549 5.42713 16.9078 6.25549 16.9078C6.58199 16.9078 6.90466 16.9462 7.21755 17.0205C6.52271 18.0842 5.88271 19.3263 5.32276 20.7742L4.79906 22.1283L10.327 22.1534Z" fill="#1C1C1C"/>
</svg>
