<svg width="32" height="32" viewBox="0 0 32 32" fill="none" xmlns="http://www.w3.org/2000/svg">
<path d="M22.8511 14.7456V16.7456H26.588V14.7456H22.8511Z" fill="#1C1C1C"/>
<path d="M5.45209 14.7456H9.18899V16.7456H5.45209V14.7456Z" fill="#1C1C1C"/>
<path d="M9.19367 11.6061H23.1038V13.6061H9.19367V11.6061Z" fill="#1C1C1C"/>
<path fill-rule="evenodd" clip-rule="evenodd" d="M11.4446 5.25824H20.4695C21.931 5.29148 23.334 5.84065 24.4232 6.80879C25.5088 7.77377 26.2109 9.09193 26.3992 10.5264C26.4439 10.8016 26.5463 11.0654 26.7008 11.3009L26.7163 11.3242H29.9026V13.3242H28.8109C28.9576 13.5264 29.0911 13.7388 29.21 13.96C29.6569 14.7909 29.8853 15.72 29.8732 16.662V19.7802C29.8819 20.111 29.8232 20.4398 29.7013 20.7471C29.5771 21.0604 29.3897 21.3445 29.1513 21.5825C28.913 21.8205 28.6288 22.0071 28.3167 22.132C28.2574 22.1557 28.1972 22.1772 28.1363 22.1963V24.0876C28.1363 24.7932 27.8528 25.4672 27.3526 25.9632C26.8528 26.4586 26.1715 26.7365 25.4689 26.7406C24.7634 26.7406 24.0841 26.4646 23.5809 25.9687C23.0773 25.4723 22.7916 24.796 22.7916 24.0876V22.3417L9.16953 22.311V24.0876C9.16953 24.796 8.88384 25.4723 8.38015 25.9687C7.87693 26.4646 7.19746 26.7406 6.49212 26.7406H6.48629C5.78358 26.7365 5.10829 26.4586 4.60852 25.9632C4.10825 25.4672 3.82476 24.7932 3.82477 24.0876V22.2183C3.39135 22.096 2.99489 21.858 2.68196 21.5237C2.24053 21.0522 2.00084 20.4266 2.01822 19.7798V16.662C2.00614 15.7201 2.23453 14.7909 2.68138 13.96C2.80037 13.7388 2.9338 13.5264 3.08052 13.3242H2.13678V11.3242H5.17512L5.19065 11.3009C5.34509 11.0654 5.44754 10.8016 5.49226 10.5264C5.68052 9.09185 6.3828 7.77372 7.46834 6.80879C8.55748 5.84067 9.96044 5.29174 11.4219 5.2585L11.4446 5.25824ZM24.7916 22.311V24.0876C24.7916 24.256 24.8593 24.4205 24.9848 24.5442C25.1101 24.6676 25.2827 24.7398 25.4659 24.7406C25.6485 24.7387 25.8202 24.6661 25.9445 24.5428C26.0691 24.4193 26.1363 24.2554 26.1363 24.0876V22.311H24.7916ZM5.82477 22.311H7.16953V24.0876C7.16953 24.256 7.10177 24.4205 6.97633 24.5442C6.85109 24.6676 6.67834 24.7398 6.49504 24.7406C6.31256 24.7387 6.14098 24.6661 6.01657 24.5428C5.892 24.4193 5.82477 24.2554 5.82477 24.0876V22.311ZM6.02357 13.3242H6.12181V13.2423C6.40648 12.9971 6.65628 12.7131 6.86313 12.3976C7.17517 11.9218 7.3822 11.3856 7.47006 10.824L7.47391 10.7969C7.59702 9.83944 8.06515 8.95421 8.79707 8.30361C9.52666 7.65509 10.4698 7.28322 11.4566 7.25824H20.4348C21.4217 7.28322 22.3649 7.6551 23.0945 8.30361C23.8264 8.95417 24.2983 9.86642 24.4214 10.824C24.5092 11.3856 24.7163 11.9218 25.0283 12.3976C25.3397 12.8725 25.7485 13.2763 26.2271 13.5833C26.7419 13.9178 27.1615 14.3735 27.4486 14.9073C27.7361 15.4418 27.8819 16.0381 27.8733 16.6411L27.8732 16.6553L27.8738 19.829C27.8759 19.8901 27.8653 19.9516 27.8423 20.0096C27.8192 20.0677 27.7841 20.1214 27.7383 20.1672C27.6924 20.213 27.6366 20.25 27.5738 20.2751C27.5111 20.3002 27.4434 20.3126 27.3749 20.3112L27.3546 20.311H22.4055L21.8843 18.1708C21.7222 17.509 21.3348 16.924 20.7912 16.5141C20.2518 16.1075 19.5901 15.8957 18.9153 15.9109H13.4614C12.7866 15.8957 12.1249 16.1075 11.5855 16.5141C11.0419 16.924 10.6548 17.5077 10.4927 18.1695L10.4916 18.1739L9.97842 20.311H4.46628C4.33973 20.3011 4.22423 20.2447 4.14199 20.1568C4.05652 20.0655 4.01349 19.9479 4.01761 19.8299L4.01822 19.8124V16.6553L4.01812 16.6411C4.00957 16.0381 4.15533 15.4418 4.4428 14.9073C4.72992 14.3735 5.14955 13.9178 5.66444 13.5833C5.78904 13.5033 5.90891 13.4168 6.02357 13.3242ZM12.0353 20.311H20.3471L19.9414 18.6453C19.89 18.4356 19.7661 18.2461 19.5872 18.1112C19.4079 17.976 19.1847 17.9042 18.9552 17.9105L18.9277 17.9113L13.4215 17.9109C13.192 17.9046 12.9689 17.976 12.7895 18.1112C12.611 18.2458 12.4874 18.4343 12.4357 18.6435L12.0353 20.311Z" fill="#1C1C1C"/>
</svg>
