<svg width="32" height="32" viewBox="0 0 32 32" fill="none" xmlns="http://www.w3.org/2000/svg">
<path fill-rule="evenodd" clip-rule="evenodd" d="M12.0387 2.9754L10.1116 5.92554H8.38088L0.550781 13.586L5.72518 19.6658L7.78869 17.5682V28.7847H24.2115V17.5682L26.275 19.6658L31.4494 13.586L23.6193 5.92554H21.8876L19.9576 2.97565L12.0387 2.9754ZM13.9719 4.9754L15.9998 7.07347L18.0259 4.97565L13.9719 4.9754ZM15.0046 11.8652V17.8806H17.0046V11.8878L17.7451 13.0251L22.682 7.92554H22.8037L28.717 13.7107L26.1683 16.7054L22.2115 12.6834V26.7847H9.78869V12.6834L5.83194 16.7054L3.28321 13.7107L9.19651 7.92554H9.3186L14.2472 13.0246L15.0046 11.8652ZM11.5595 7.36613L12.3425 6.16742L14.7265 8.63383L13.9435 9.83255L11.5595 7.36613ZM17.2727 8.63442L18.0526 9.83205L20.44 7.36601L19.6557 6.16717L17.2727 8.63442Z" fill="#1C1C1C"/>
</svg>
