<svg width="32" height="32" viewBox="0 0 32 32" fill="none" xmlns="http://www.w3.org/2000/svg">
<path fill-rule="evenodd" clip-rule="evenodd" d="M9.13434 17.7065H22.8567V25.66H9.13434V17.7065ZM11.1343 19.7065V23.66H20.8567V19.7065H11.1343Z" fill="#1C1C1C"/>
<path fill-rule="evenodd" clip-rule="evenodd" d="M21.6987 2.14173C20.7353 1.29289 19.5003 0.828136 18.222 0.840068H11.3701V2.84007H13.5887V6.875H11.6591V11.5382C10.3476 12.0143 9.14383 12.7865 8.14383 13.8124C6.38298 15.6189 5.39704 18.0637 5.39453 20.6086V30.016H26.6059V20.6095C26.6034 18.0647 25.6174 15.6189 23.8566 13.8124C22.8542 12.7842 21.6472 12.0107 20.3321 11.5349V6.875H18.4109V2.84301C19.1295 2.87529 19.8222 3.15392 20.3765 3.64234C20.9761 4.17058 21.3732 4.90914 21.4869 5.7233L21.6252 6.71369L23.6059 6.43709L23.4676 5.4467C23.2889 4.16656 22.6628 2.99118 21.6987 2.14173ZM15.5887 3.01575V6.72479H16.4109V3.01575H15.5887ZM14.6453 12.9866H17.3551C19.2533 13.0278 21.0705 13.8195 22.4244 15.2085C23.8163 16.6364 24.6039 18.5789 24.6059 20.6105V28.016H7.39453L7.39453 20.6105C7.39668 18.5791 8.18421 16.6363 9.576 15.2085C10.9299 13.8195 12.7471 13.0278 14.6453 12.9866ZM17.3756 10.9866H18.3321V8.875H13.6591V10.9866H14.6248C14.6837 10.9854 14.7426 10.9849 14.8016 10.9849H17.1988C17.2578 10.9849 17.3167 10.9854 17.3756 10.9866Z" fill="#1C1C1C"/>
</svg>
