<svg width="32" height="32" viewBox="0 0 32 32" fill="none" xmlns="http://www.w3.org/2000/svg">
<path d="M16 8.30125L14.5858 9.71546L20 15.1297L21.4142 13.7155L16 8.30125Z" fill="#1C1C1C"/>
<path fill-rule="evenodd" clip-rule="evenodd" d="M23.0911 3.42223L21.6694 2.0155L18.624 5.09325L17.7456 4.20316L17.7547 4.1939L17.05 3.4984L16.3499 2.78901L16.3405 2.79822L16.3312 2.78901L15.6311 3.49844L14.9264 4.1939L14.9355 4.20317L11.4336 7.75146C9.3033 9.90993 8.99223 13.1844 10.2921 15.8874L8.39214 17.7875C8.0039 18.1757 8.00129 18.8043 8.3863 19.1958L8.83547 19.6525L4.58625 23.9579C4.27867 24.2445 4.03109 24.5896 3.85737 24.9728C3.67986 25.3644 3.58301 25.7879 3.57229 26.2177C3.56157 26.6475 3.63718 27.0753 3.79488 27.4753C3.95258 27.8753 4.18925 28.2395 4.4912 28.5454C4.79317 28.8514 5.15417 29.0927 5.55264 29.254C5.95113 29.4153 6.37827 29.493 6.80798 29.482C7.23769 29.471 7.66032 29.3715 8.05006 29.1902C8.4314 29.0127 8.77312 28.7605 9.05575 28.4492L12.4508 25.0092C12.5677 24.9076 12.7153 24.855 12.8649 24.8586C13.0205 24.8624 13.1713 24.9266 13.2853 25.0421C13.3996 25.158 13.4678 25.3166 13.4717 25.4858C13.4756 25.6487 13.4195 25.805 13.3178 25.9249L10.8256 28.4502L12.2491 29.855L14.7618 27.309C14.7729 27.2978 14.7838 27.2863 14.7943 27.2745C15.2459 26.7714 15.487 26.114 15.4712 25.4389C15.4554 24.7639 15.1837 24.1185 14.7088 23.6372C14.2334 23.1556 13.5906 22.8755 12.913 22.8592C12.2354 22.8429 11.5798 23.0918 11.0821 23.5504C11.0704 23.5612 11.059 23.5722 11.0479 23.5834L7.61622 27.0605C7.6044 27.0725 7.59288 27.0848 7.58168 27.0973C7.47576 27.2161 7.34785 27.311 7.20615 27.3769C7.0645 27.4428 6.91165 27.4787 6.75679 27.4826C6.60191 27.4866 6.44759 27.4586 6.30305 27.4001C6.15847 27.3416 6.0262 27.2535 5.91468 27.1405C5.80313 27.0275 5.71471 26.8919 5.65548 26.7417C5.59624 26.5915 5.56761 26.4301 5.57167 26.2676C5.57572 26.1051 5.61235 25.9455 5.67893 25.7986C5.74549 25.6518 5.84041 25.5211 5.95725 25.4142C5.96968 25.4028 5.98182 25.3911 5.99366 25.3791L10.2381 21.0785L10.6689 21.5165C10.8558 21.7066 11.111 21.8142 11.3777 21.8153C11.6443 21.8164 11.9004 21.711 12.0889 21.5224L14.0033 19.608C16.6686 20.893 19.8794 20.5751 22.0031 18.4233L26.191 14.18L26.9008 13.4795L26.8916 13.4702L26.9007 13.4609L26.1959 12.7653L24.6081 11.1565L27.6642 8.05206L26.2389 6.64901L23.2031 9.73291L20.029 6.51682L23.0911 3.42223ZM11.3956 19.3873L12.2935 18.4894C12.1284 18.3479 11.9679 18.1986 11.8125 18.0416C11.6711 17.8988 11.536 17.7517 11.4074 17.6006L10.5076 18.5004L10.86 18.8586L11.3956 19.3873ZM21.7898 11.1686L21.7999 11.1583L17.9255 7.23267L17.2088 6.5235L17.2172 6.51501L16.3405 5.62676L12.8571 9.15635C10.9889 11.0492 11.0448 14.4236 13.2338 16.6345C15.4216 18.8444 18.7227 18.8999 20.5796 17.0184L24.0815 13.4702L22.5009 11.8686L21.7898 11.1686Z" fill="#1C1C1C"/>
</svg>
