<svg width="32" height="32" viewBox="0 0 32 32" fill="none" xmlns="http://www.w3.org/2000/svg">
<path fill-rule="evenodd" clip-rule="evenodd" d="M6.16294 7.87128L6.13971 9.05851H2.32477V13.2192H1.07141V18.7808H2.32477V22.9414H6.14356V24.1286H11.9391V18.7808H20.0725V24.1286H25.8681V22.9414H29.6635V18.7808H30.9286V13.2192H29.6635V9.05851H25.8681V7.87128H20.0725V13.2192H11.9391V7.87128H6.16294ZM4.33659 18.7808H4.32477V20.9414H8.14356V22.1286H9.93912V9.87128H8.12418L8.10094 11.0585H4.32477V13.2192H4.33659V18.7808ZM27.6635 11.0585V20.9414H23.8681V22.1286H22.0725V9.87128H23.8681V11.0585H27.6635ZM11.9392 16.7808V15.2192H20.0722V16.7808H11.9392Z" fill="#1C1C1C"/>
</svg>
