<svg width="32" height="32" viewBox="0 0 32 32" fill="none" xmlns="http://www.w3.org/2000/svg">
<path fill-rule="evenodd" clip-rule="evenodd" d="M8.0884 6C7.04742 6 6.02486 6.35605 5.25066 7.02512C4.47188 7.69814 3.99996 8.64496 3.99996 9.66904V11.2823C3.44049 11.4728 2.92094 11.7757 2.47678 12.1784C1.67237 12.9077 1.17406 13.9113 1.08688 14.9909L1.08313 15.0374L1.08372 15.084C1.09098 15.661 1.22754 16.2288 1.48297 16.7469C1.71832 17.2242 2.04895 17.6478 2.45336 17.9933V26.4033H9.7542V25.2016H22.2036V26.4033H29.4939L29.5453 18.0004C29.95 17.6449 30.2777 17.2104 30.5067 16.7228C30.7499 16.205 30.8754 15.6405 30.874 15.069L30.8739 15.0299L30.8708 14.9909C30.7836 13.9113 30.2853 12.9077 29.4809 12.1784C29.0479 11.7858 28.5433 11.4881 28 11.2969V9.66904C28 8.64496 27.528 7.69814 26.7493 7.02512C25.9751 6.35605 24.9525 6 23.9115 6H8.0884ZM26 11.0806V9.66904C26 9.27738 25.8211 8.8664 25.4415 8.53834C25.0573 8.20632 24.5087 8 23.9115 8H8.0884C7.49117 8 6.94258 8.20632 6.55839 8.53834C6.17878 8.8664 5.99996 9.27738 5.99996 9.66904V11.086C6.87583 11.2024 7.70152 11.5804 8.36106 12.1784C9.16547 12.9077 9.66378 13.9113 9.75095 14.9909L9.7542 15.0311V16.7891H22.2036V15.0311L22.2068 14.9909C22.294 13.9113 22.7923 12.9077 23.5967 12.1784C24.2668 11.5708 25.1084 11.1904 26 11.0806ZM3.82012 13.6601C4.25255 13.268 4.82328 13.0475 5.41898 13.0475C6.01464 13.0475 6.58526 13.268 7.01771 13.6601C7.44034 14.0432 7.70033 14.5621 7.7542 15.1154V24.4033H4.45336V17.0541L3.82032 16.5285L3.80453 16.5156C3.58054 16.3372 3.40078 16.1139 3.27676 15.8624C3.15959 15.6247 3.09448 15.3668 3.0847 15.1048C3.14086 14.5554 3.40021 14.0408 3.82012 13.6601ZM24.9401 13.6601C25.3725 13.268 25.9431 13.0475 26.5388 13.0475C27.1345 13.0475 27.7051 13.268 28.1375 13.6601C28.5594 14.0425 28.8192 14.5601 28.8737 15.1123C28.8689 15.3744 28.8088 15.6333 28.6964 15.8727C28.5797 16.1212 28.409 16.3436 28.1948 16.5241L27.5463 17.0429V17.8385L27.5061 24.4033H24.2036L24.2036 15.1154C24.2574 14.5621 24.5174 14.0432 24.9401 13.6601ZM9.94234 18.7891V23.2016H22.0571V18.7891H9.94234Z" fill="#1C1C1C"/>
</svg>
