<svg width="32" height="32" viewBox="0 0 32 32" fill="none" xmlns="http://www.w3.org/2000/svg">
<path fill-rule="evenodd" clip-rule="evenodd" d="M23.3472 1.95554L23.3433 1.95518L23.3368 1.95464L23.3195 1.95324L23.2683 1.94988C23.227 1.94754 23.1714 1.9452 23.1036 1.94422C22.9683 1.94224 22.7818 1.9456 22.5606 1.96566C22.1238 2.00526 21.5213 2.11266 20.9044 2.39579C20.2795 2.6826 19.6335 3.15358 19.1497 3.91014C18.7994 4.45798 18.5569 5.12 18.4498 5.90792L18.2586 6.1763C18.0836 5.91469 17.8902 5.68229 17.6806 5.47751C17.0381 4.84984 16.3015 4.53858 15.6273 4.40235C14.962 4.26789 14.3504 4.30162 13.9159 4.36333C13.6958 4.39457 13.5134 4.43412 13.382 4.46709C13.3161 4.48363 13.2625 4.49867 13.2228 4.51042L13.1737 4.52544L13.1572 4.53074L13.1511 4.53277L13.1485 4.53362C13.1485 4.53362 13.1737 4.52544 13.1511 4.53277L13.1463 4.53436L12.4651 4.7635V5.48217C12.4651 5.80239 12.4973 6.18408 12.5732 6.56027C12.6466 6.92399 12.775 7.35461 13.0078 7.72328C13.3689 8.29519 13.8524 8.77923 14.4236 9.1394C14.9949 9.49961 15.6392 9.72667 16.3095 9.8033C16.6655 9.84399 17.1425 9.84855 17.6322 9.7285V11.645C16.416 11.7783 15.1547 12.093 14.0786 12.5931C12.7458 13.2124 11.907 13.6788 10.7929 14.7929L10.5858 15L6.88435 15L9.59375 20.4367H9.03185L9.01959 20.4365C8.93135 20.4347 8.54332 20.415 8.15401 20.3772C7.98678 20.3609 7.83463 20.3428 7.71458 20.3239L5.02272 10.8771C4.89732 10.4289 4.63232 10.0313 4.26441 9.74398C3.89533 9.45579 3.44279 9.29436 2.97375 9.28571H0V11.2857H2.94183C2.97394 11.2873 3.00596 11.2988 3.03351 11.3203C3.06267 11.3431 3.08564 11.3763 3.09676 11.4163L5.79564 20.8877C5.91936 21.3242 6.1787 21.7112 6.53787 21.9906C6.72517 22.1363 6.93388 22.1959 7.00129 22.2152C7.10608 22.2452 7.21613 22.2675 7.31483 22.2848C7.51486 22.3198 7.74635 22.347 7.96064 22.3678C8.38156 22.4087 8.81578 22.4324 8.97348 22.4359L10.6162 22.4883L10.9263 23.1107L10.9388 23.1349C11.0375 23.3201 11.1622 23.4879 11.3077 23.6347L10.4468 26.8824L10.4387 26.9581C10.3377 27.8979 10.9713 28.5485 11.5779 28.8127C12.1892 29.079 13.0292 29.0863 13.6905 28.5461L13.714 28.5269L17.9565 24.6098L23.7968 24.9726C23.6648 25.3625 23.5933 25.7801 23.5933 26.2138C23.5933 28.3256 25.2889 30.0569 27.4044 30.0569C29.5198 30.0569 31.2155 28.3256 31.2155 26.2138C31.2155 24.1021 29.5198 22.3707 27.4044 22.3707C27.2608 22.3707 27.1192 22.3787 26.9799 22.3942L30.6037 15L26.9181 15C25.9236 13.9214 24.6982 13.0594 23.3263 12.4692C22.1582 11.9666 20.9062 11.6706 19.6322 11.5924V8.07878C19.6322 8.01861 19.6367 7.95857 19.6455 7.89974C19.8222 7.92044 20.0237 7.9421 20.2051 7.95266C20.5468 7.97256 21.0143 7.97209 21.4566 7.81283C22.092 7.58405 22.668 7.21513 23.143 6.73372C23.6179 6.25236 23.98 5.67066 24.2035 5.03141C24.4284 4.38819 24.5528 3.40539 24.1684 2.54387L23.9303 2.01005L23.3472 1.95554ZM27.3281 17L27.3963 17L24.5047 22.9002L24.4239 22.9733C24.3835 22.9931 24.3338 23.0033 24.2818 22.999L24.262 22.9976L12.9021 22.292L12.8857 22.2911C12.8386 22.289 12.7967 22.2751 12.7644 22.2552C12.7357 22.2376 12.7176 22.2174 12.7072 22.2001L10.1157 17H27.3281ZM23.8359 15C23.4267 14.7349 22.9919 14.5025 22.5359 14.3063C21.3723 13.8057 20.1022 13.5543 18.8184 13.5723C17.5118 13.5907 16.049 13.8829 14.9214 14.4068C14.4577 14.6223 14.0823 14.8061 13.7462 15L23.8359 15ZM15.1941 24.4382L13.1967 24.3141L12.5058 26.9203L15.1941 24.4382ZM21.7387 4.21349C21.9614 4.11129 22.1899 4.04607 22.4009 4.00542C22.3853 4.12827 22.3569 4.25319 22.3156 4.37127C22.1894 4.73229 21.9854 5.05937 21.7193 5.32902C21.4533 5.59862 21.132 5.80403 20.7791 5.93109C20.7376 5.94604 20.6417 5.96312 20.4667 5.96126C20.5482 5.53704 20.6844 5.22254 20.8347 4.98759C21.076 4.61019 21.3968 4.3704 21.7387 4.21349ZM15.2312 6.36273C15.0018 6.31637 14.7747 6.30422 14.5673 6.31101C14.611 6.47894 14.66 6.59398 14.6989 6.65544C14.9017 6.9767 15.1724 7.24713 15.4904 7.44765C15.8083 7.64814 16.1658 7.77385 16.5367 7.81624C16.6484 7.82901 16.7665 7.83306 16.8826 7.82602C16.703 7.40199 16.4905 7.11086 16.283 6.90813C15.9643 6.59675 15.599 6.43706 15.2312 6.36273ZM25.6475 25.7632L27.3336 27.6263L28.8165 26.2842L27.1072 24.3956C27.2041 24.3792 27.3033 24.3707 27.4044 24.3707C28.394 24.3707 29.2155 25.1852 29.2155 26.2138C29.2155 27.2425 28.394 28.0569 27.4044 28.0569C26.4148 28.0569 25.5933 27.2425 25.5933 26.2138C25.5933 26.058 25.6121 25.9071 25.6475 25.7632Z" fill="#1C1C1C"/>
</svg>
