<svg width="32" height="32" viewBox="0 0 32 32" fill="none" xmlns="http://www.w3.org/2000/svg">
<path fill-rule="evenodd" clip-rule="evenodd" d="M25.3287 4.56226H6.68273L2.02075 12.3739L16.0001 29.1423L29.9789 12.3745L25.3287 4.56226ZM18.0927 23.5088L26.8536 13H21.1188L18.0927 23.5088ZM19.0376 13H12.6046L15.959 23.6911L19.0376 13ZM13.7442 23.3129L10.5084 13H5.14659L13.7442 23.3129ZM14.3546 6.56226H9.51014L11.7122 10.1956L14.3546 6.56226ZM7.49735 7.09991L5.16977 11H9.86104L7.49735 7.09991ZM21.8722 11H26.8332L24.4916 7.06608L21.8722 11ZM22.4243 6.56226L20.0039 10.1972L17.5776 6.56226H22.4243ZM18.1351 11H13.6002L15.9649 7.74856L18.1351 11Z" fill="#1C1C1C"/>
</svg>
