<svg width="32" height="32" viewBox="0 0 32 32" fill="none" xmlns="http://www.w3.org/2000/svg">
<path fill-rule="evenodd" clip-rule="evenodd" d="M13.0726 11.6494V17.4723H18.8117V11.6494H13.0726ZM15.0726 15.4723V13.6494H16.8117V15.4723H15.0726Z" fill="#1C1C1C"/>
<path fill-rule="evenodd" clip-rule="evenodd" d="M15.946 2.83246L4.68013 12.7987H9.25365V17.8504H8.87496V16.7573H2.54163V27.5461H8.87496V26.3537C9.5098 26.5716 10.0958 26.7758 10.638 26.9647C11.9481 27.4212 13.0036 27.7891 13.8773 28.047C15.3681 28.4872 16.5233 28.6722 17.7779 28.4429C18.9824 28.2228 20.1924 27.6325 21.8125 26.7648C22.2368 26.5376 22.6943 26.2882 23.1948 26.0155C24.6466 25.2244 26.4591 24.2367 28.8654 23.0226L29.9245 22.4883L29.2187 21.5348C28.7311 20.8761 28.0544 20.3825 27.2786 20.1216C26.5026 19.8606 25.6658 19.8452 24.8807 20.0779L24.8643 20.0828L22.6384 20.8264V12.7987H27.2119L21.7696 7.98419V4.34301H19.7696V6.21491L15.946 2.83246ZM20.6384 20.6094V10.7987H21.9326L15.946 5.50273L9.95942 10.7987H11.2536V17.8572C13.1624 17.9585 14.9708 18.7325 16.3662 20.0367H19.2066C19.7414 20.0367 20.2531 20.2432 20.6384 20.6094ZM19.1601 22.223L19.0979 22.0367H15.5309L15.2358 21.7298C14.1341 20.584 12.6394 19.9121 11.0628 19.8504H8.87496V24.2402C9.81946 24.5609 10.6426 24.848 11.3714 25.1021C12.6306 25.5413 13.6085 25.8823 14.4437 26.1289C15.8158 26.534 16.616 26.6221 17.4183 26.4755C18.2706 26.3197 19.219 25.885 20.8682 25.0018C21.276 24.7834 21.7224 24.5401 22.2145 24.272L22.2166 24.2708C23.3678 23.6435 24.7699 22.8794 26.5122 21.9787C26.1685 21.8885 25.8066 21.8924 25.4639 21.9911L20.7095 23.5794L20.6829 23.6068C20.2929 24.0004 19.762 24.223 19.2066 24.223H12.2483V22.223H19.1601ZM6.87496 25.5461V18.7573H4.54163V25.5461H6.87496Z" fill="#1C1C1C"/>
</svg>
