<svg width="32" height="32" viewBox="0 0 32 32" fill="none" xmlns="http://www.w3.org/2000/svg">
<path fill-rule="evenodd" clip-rule="evenodd" d="M12.1882 25.3668L15.3702 24.7487C15.8212 24.6644 16.2844 24.6643 16.7354 24.7484L16.7561 24.7522L19.8777 25.3682C20.2941 25.4509 20.726 25.4147 21.1193 25.2653C21.5124 25.1161 21.8453 24.8622 22.0819 24.5411C22.3181 24.2205 22.4494 23.8453 22.4655 23.4616C22.4816 23.0782 22.3821 22.6951 22.1745 22.3588L17.9 15.4186C17.7167 15.1118 17.45 14.8515 17.1219 14.6682C16.7926 14.4842 16.4156 14.3857 16.0293 14.3857C15.6431 14.3857 15.2661 14.4842 14.9368 14.6682C14.6086 14.8515 14.3417 15.1118 14.1585 15.4185L14.1445 15.4419L9.88497 22.3575C9.67753 22.6936 9.57716 23.078 9.59324 23.4616C9.60932 23.8453 9.74062 24.2205 9.97685 24.5411C10.2135 24.8622 10.5464 25.1161 10.9395 25.2653C11.3326 25.4146 11.7643 25.4509 12.1805 25.3683L12.1882 25.3668ZM8.18204 21.3087C7.76687 21.9814 7.56202 22.7586 7.59499 23.5454C7.62797 24.3322 7.89725 25.0903 8.36672 25.7275C8.83594 26.3643 9.48404 26.852 10.2295 27.1351C10.9744 27.4179 11.787 27.4853 12.5696 27.3301L15.7378 26.7147C15.9462 26.6757 16.1605 26.6756 16.3689 26.7145L19.4882 27.33C20.2711 27.4854 21.0841 27.418 21.8292 27.1351C22.5747 26.852 23.2228 26.3643 23.692 25.7275C24.1615 25.0903 24.4308 24.3322 24.4638 23.5454C24.4967 22.7587 24.2917 21.9811 23.8765 21.3084L19.6171 14.3929C19.5757 14.3235 19.5322 14.2555 19.4867 14.1889C19.1307 13.667 18.6547 13.2335 18.0973 12.9221C17.4912 12.5835 16.8081 12.4 16.1121 12.3865C16.0845 12.386 16.0569 12.3857 16.0293 12.3857C15.9817 12.3857 15.9342 12.3865 15.8868 12.3881C15.2114 12.4107 14.5502 12.5932 13.9615 12.9221C13.4059 13.2325 12.9311 13.6641 12.5753 14.1838C12.5286 14.252 12.484 14.3218 12.4415 14.3929L8.18204 21.3087ZM11.6725 12.1608C11.8265 12.1882 11.9859 12.2024 12.1502 12.2024C12.6044 12.2024 13.0206 12.0933 13.391 11.901C13.96 11.6055 14.4208 11.1135 14.7444 10.5189C14.8196 10.3807 14.8874 10.2369 14.9475 10.0888C15.1617 9.56043 15.277 8.97642 15.277 8.39028C15.277 7.80414 15.1617 7.22013 14.9475 6.69172C14.4609 5.4915 13.4643 4.57812 12.1502 4.57812C10.2576 4.57812 9.02344 6.47279 9.02344 8.39028C9.02344 8.84648 9.0933 9.30138 9.22526 9.72979C9.53924 10.7491 10.2048 11.6184 11.1175 11.9981C11.2936 12.0714 11.4788 12.1264 11.6725 12.1608ZM17.0527 6.69172C16.8385 7.22013 16.7231 7.80414 16.7231 8.39028C16.7231 8.97642 16.8385 9.56043 17.0527 10.0888C17.1108 10.2322 17.1761 10.3714 17.2484 10.5054C17.581 11.122 18.0604 11.6294 18.6548 11.9242C19.0136 12.1021 19.4143 12.2024 19.8499 12.2024C20.0318 12.2024 20.2076 12.1849 20.3768 12.1516C20.5528 12.1169 20.7216 12.0651 20.8828 11.9981C21.7954 11.6183 22.4609 10.7491 22.7748 9.7299C22.9068 9.30146 22.9767 8.84652 22.9767 8.39028C22.9767 6.47279 21.7425 4.57812 19.8499 4.57812C18.5359 4.57812 17.5392 5.4915 17.0527 6.69172ZM24.3763 11.1267C23.4637 11.5065 22.7982 12.3757 22.4842 13.3949C22.3522 13.8233 22.2823 14.2783 22.2823 14.7345C22.2823 14.7938 22.2835 14.853 22.2859 14.9121C22.3449 16.4038 23.1424 17.8464 24.4061 18.3545C24.7141 18.4783 25.0497 18.5467 25.4091 18.5467C27.3017 18.5467 28.5359 16.652 28.5359 14.7345C28.5359 12.817 27.3017 10.9224 25.4091 10.9224C25.0381 10.9224 24.6924 10.9952 24.3763 11.1267ZM7.62385 11.1267C7.3078 10.9952 6.96212 10.9224 6.59114 10.9224C4.69855 10.9224 3.46436 12.817 3.46436 14.7345C3.46436 16.652 4.69855 18.5467 6.59114 18.5467C6.98148 18.5467 7.34381 18.4661 7.67308 18.3213C8.86224 17.7985 9.62024 16.4387 9.70914 15.0155C9.71497 14.922 9.71793 14.8283 9.71793 14.7345C9.71793 14.2783 9.64806 13.8234 9.5161 13.395C9.20211 12.3757 8.53655 11.5064 7.62385 11.1267ZM11.4662 6.97951C11.2081 7.31733 11.0234 7.83549 11.0234 8.39028C11.0234 8.94507 11.2081 9.46323 11.4662 9.80105C11.7058 10.1145 11.938 10.2024 12.1502 10.2024C12.3625 10.2024 12.5947 10.1145 12.8342 9.80105C13.0924 9.46323 13.277 8.94507 13.277 8.39028C13.277 7.83549 13.0924 7.31733 12.8342 6.97951C12.5947 6.66604 12.3625 6.57812 12.1502 6.57812C11.938 6.57812 11.7058 6.66604 11.4662 6.97951ZM5.90715 13.3237C5.649 13.6616 5.46436 14.1797 5.46436 14.7345C5.46436 15.2893 5.649 15.8075 5.90715 16.1453C6.1467 16.4588 6.37887 16.5467 6.59114 16.5467C6.80341 16.5467 7.03558 16.4588 7.27513 16.1453C7.53329 15.8075 7.71793 15.2893 7.71793 14.7345C7.71793 14.1797 7.53329 13.6616 7.27513 13.3237C7.03558 13.0103 6.80341 12.9224 6.59114 12.9224C6.37888 12.9224 6.1467 13.0103 5.90715 13.3237ZM19.1659 6.97951C18.9078 7.31733 18.7231 7.83549 18.7231 8.39028C18.7231 8.94507 18.9078 9.46323 19.1659 9.80105C19.4055 10.1145 19.6377 10.2024 19.8499 10.2024C20.0622 10.2024 20.2944 10.1145 20.5339 9.80105C20.7921 9.46323 20.9767 8.94507 20.9767 8.39028C20.9767 7.83549 20.7921 7.31733 20.5339 6.97951C20.2944 6.66604 20.0622 6.57812 19.8499 6.57812C19.6377 6.57812 19.4055 6.66604 19.1659 6.97951ZM24.7251 13.3237C24.467 13.6616 24.2823 14.1797 24.2823 14.7345C24.2823 15.2893 24.467 15.8075 24.7251 16.1453C24.9647 16.4588 25.1969 16.5467 25.4091 16.5467C25.6214 16.5467 25.8536 16.4588 26.0931 16.1453C26.3513 15.8075 26.5359 15.2893 26.5359 14.7345C26.5359 14.1797 26.3513 13.6616 26.0931 13.3237C25.8536 13.0103 25.6214 12.9224 25.4091 12.9224C25.1969 12.9224 24.9647 13.0103 24.7251 13.3237Z" fill="#1C1C1C"/>
</svg>
