<svg width="32" height="32" viewBox="0 0 32 32" fill="none" xmlns="http://www.w3.org/2000/svg">
<path fill-rule="evenodd" clip-rule="evenodd" d="M25.498 12.4566C25.2342 12.4192 24.9782 12.3399 24.74 12.222L18.0386 7.84649L18.0293 7.8402L17.9858 7.81143C17.9493 7.78756 17.8982 7.75459 17.8356 7.71565C17.7117 7.63848 17.5376 7.53457 17.3414 7.43097C17.1487 7.32922 16.9145 7.21704 16.6733 7.13241C16.4582 7.05694 16.1209 6.96009 15.7644 6.9961L15.7587 6.99671C14.5256 7.12841 13.7391 7.89825 13.2982 8.52431C13.0745 8.84194 12.9202 9.14802 12.8215 9.37377C12.7716 9.48777 12.7346 9.58431 12.709 9.65562C12.6962 9.69135 12.6862 9.72099 12.6789 9.74358L12.6697 9.77216L12.6666 9.78232L12.6652 9.7871L12.6061 9.92473C12.5803 9.98406 12.5548 10.043 12.5506 10.054C12.454 10.2464 12.293 10.5124 12.0434 10.7849C11.5616 11.311 10.7044 11.9144 9.18069 12.0014L9.17805 12.0015C7.97587 12.0734 7.02112 11.5351 6.26499 10.8236C5.63231 10.2283 5.21364 9.59027 4.9291 9.15664L4.92909 9.15664C4.86477 9.05862 4.80731 8.97104 4.75577 8.89677C4.27643 8.2059 3.2812 7.81303 2.37263 8.40562C1.59177 8.91492 1.21781 9.95467 1.13536 11.2361L1.1333 11.2682V19.5469C1.1333 20.6445 1.57233 21.6958 2.35163 22.4699C3.1307 23.2438 4.18593 23.6773 5.28482 23.6773H23.7159C24.9941 23.6797 26.2505 23.3451 27.3569 22.7073C28.1245 22.2647 28.801 21.687 29.3548 21.0053L29.465 20.8897C30.0526 20.2731 30.5093 19.5448 30.8073 18.748C31.1053 17.9512 31.2385 17.1027 31.1987 16.2533L31.1974 16.2255L31.1946 16.1979C30.9985 14.2893 29.4543 13.3707 28.2492 12.9482C27.0875 12.541 25.9146 12.4643 25.498 12.4566ZM12.6347 9.85893C12.6311 9.86716 12.6274 9.87583 12.6235 9.88476C12.6179 9.89773 12.612 9.91124 12.6061 9.92473L12.5506 10.054L12.6347 9.85893ZM12.6347 9.85893C12.6509 9.82163 12.6632 9.79333 12.664 9.79101L12.6347 9.85893ZM15.92 8.99192C15.5035 9.05391 15.1846 9.31916 14.9334 9.67592C14.8059 9.85691 14.7137 10.0383 14.6538 10.1753C14.6243 10.2427 14.6039 10.2964 14.5919 10.33C14.5859 10.3467 14.5821 10.3582 14.5803 10.3636L14.5795 10.366L14.5759 10.3781L14.5624 10.4202C14.5514 10.4533 14.5364 10.4963 14.5167 10.548C14.4774 10.6512 14.4193 10.7897 14.3377 10.9521C14.1749 11.276 13.9149 11.7026 13.5184 12.1356C12.7081 13.0204 11.3728 13.8794 9.29474 13.9981C7.35572 14.1131 5.88919 13.2162 4.89442 12.2802C4.15337 11.5829 3.61372 10.8 3.31831 10.3504C3.24066 10.5544 3.16546 10.8702 3.1333 11.3337V12.6226C3.25808 12.6574 3.40384 12.7018 3.5656 12.7581C4.07313 12.9348 4.75403 13.2331 5.44163 13.7228C6.69906 14.6183 7.93495 16.1291 8.20355 18.5469H19.5096C19.7926 18.462 20.002 18.3992 20.0033 18.3989C20.0272 18.3937 20.1564 18.3654 20.4027 18.2265C20.6601 18.0814 20.9543 17.8675 21.2415 17.6162C21.5278 17.3657 21.7837 17.0986 21.9713 16.8609C22.1539 16.6296 22.2133 16.4993 22.2246 16.4747C22.2263 16.4709 22.2266 16.471 22.2266 16.471L22.2419 16.4053C22.3456 15.9578 22.5922 14.8941 23.2742 13.9823C23.3287 13.9095 23.3861 13.8373 23.4467 13.7662L22.821 13.3577C22.4289 13.6356 22.1231 14.0209 21.9438 14.4698L21.5729 15.3985L19.7155 14.6566L20.0865 13.7279C20.314 13.1584 20.6535 12.6471 21.0793 12.2204L20.7107 11.9797C20.509 12.0887 20.324 12.2264 20.162 12.3888C19.9221 12.6292 19.7381 12.918 19.6221 13.235L19.2785 14.1741L17.4003 13.4869L17.7439 12.5478C17.9598 11.9576 18.3019 11.4215 18.7461 10.9763C18.8028 10.9195 18.8609 10.8643 18.9205 10.8109L18.4583 10.5091C18.2751 10.6145 18.1063 10.7435 17.9564 10.8931C17.7128 11.1362 17.5248 11.428 17.4047 11.7485L17.0538 12.6849L15.181 11.9832L15.5318 11.0468C15.7527 10.4574 16.0979 9.92226 16.5438 9.47731C16.587 9.43421 16.631 9.39205 16.6759 9.35086C16.5965 9.30344 16.5046 9.2508 16.4076 9.19957C16.2615 9.12245 16.1237 9.0591 16.0112 9.01963C15.9672 9.00418 15.9373 8.99608 15.92 8.99192ZM25.8276 14.4768C25.7666 14.4969 25.7095 14.519 25.656 14.5426C25.3321 14.6852 25.0799 14.9073 24.8758 15.1802C24.4511 15.748 24.2848 16.4552 24.1788 16.9062L24.1734 16.929C24.0711 17.3638 23.7926 17.7815 23.5412 18.1C23.4237 18.2489 23.2935 18.399 23.1546 18.5469H28.7099C28.795 18.3855 28.87 18.2187 28.9341 18.0473C29.1338 17.5133 29.2249 16.9455 29.2022 16.3767C29.1174 15.6694 28.5521 15.1738 27.5875 14.8356C26.9353 14.6069 26.2559 14.513 25.8276 14.4768ZM6.18703 18.5469C5.94249 16.8959 5.09809 15.9335 4.28145 15.3519C3.87874 15.0651 3.47347 14.8659 3.1333 14.7308V18.5469H6.18703ZM3.38504 20.5469C3.48365 20.7306 3.60984 20.9007 3.76109 21.051C4.16406 21.4512 4.71203 21.6773 5.28482 21.6773H23.7167L23.7187 21.6773C24.646 21.6792 25.5567 21.4365 26.3579 20.9746C26.5792 20.847 26.9888 20.5469 26.9888 20.5469H3.38504Z" fill="black"/>
</svg>
