<svg width="32" height="32" viewBox="0 0 32 32" fill="none" xmlns="http://www.w3.org/2000/svg">
<path fill-rule="evenodd" clip-rule="evenodd" d="M26.2056 3.23546C26.5513 3.20877 26.8988 3.25724 27.224 3.3776C27.5495 3.49805 27.8447 3.68751 28.0898 3.93273C28.3349 4.17807 28.5241 4.47358 28.6442 4.79892C28.7635 5.12182 28.8123 5.46679 28.7867 5.81052L28.7334 6.63135C28.6412 7.65117 28.1929 8.60608 27.4674 9.32856L27.4656 9.33028L24.5873 12.2202L25.8114 25.7783L23.2036 28.6161L18.4245 18.6579L14.448 21.8648L15.3204 27.8612L13.3012 29.1764L9.12196 22.9139L2.83429 18.711L4.14774 16.6913L10.1399 17.5646L13.3438 13.5929L3.41082 8.81313L6.2274 6.20151L19.8058 7.4473L22.6851 4.55642L22.6906 4.55096C23.4152 3.83456 24.366 3.392 25.3807 3.29907L25.3951 3.29775L26.2056 3.23546V3.23546ZM10.6294 21.5698L10.6405 21.5568L10.5158 21.4216L10.3748 21.5326L10.4612 21.4034L7.07325 19.1388L10.9803 19.7082L16.4846 12.8848L6.9232 8.28379L6.93306 8.27465L20.5593 9.52484L24.0992 5.97075C24.4925 5.58306 25.0073 5.34318 25.5565 5.29135L26.3591 5.22956C26.417 5.22508 26.4756 5.23318 26.53 5.25331C26.5842 5.27339 26.6337 5.30504 26.675 5.34636C26.7161 5.38756 26.7479 5.43724 26.7682 5.49198C26.7885 5.54699 26.7966 5.60551 26.7921 5.66351L26.7402 6.46276C26.6879 7.01121 26.4456 7.52401 26.0552 7.91226L26.0519 7.91559L22.5115 11.4703L23.7399 25.0767L23.729 25.0885L19.135 15.5157L12.3046 21.024L12.8731 24.9319L10.6294 21.5698Z" fill="#1C1C1C"/>
</svg>
