<svg width="32" height="32" viewBox="0 0 32 32" fill="none" xmlns="http://www.w3.org/2000/svg">
<path d="M14.542 19.1179L13.2783 25.5146L11.3162 25.127L12.5799 18.7302L14.542 19.1179Z" fill="#1C1C1C"/>
<path d="M19.4111 18.7302L17.449 19.1179L18.7127 25.5146L20.6748 25.127L19.4111 18.7302Z" fill="#1C1C1C"/>
<path fill-rule="evenodd" clip-rule="evenodd" d="M21.8143 1.22009V6.19901C22.2432 6.39369 22.6633 6.6114 23.0727 6.85169L23.723 7.23333L21.863 14.4567L27.3735 28.6388L26.4115 28.9875C23.0001 30.2239 19.4013 30.831 15.7822 30.7801C12.2884 30.8667 8.81258 30.2478 5.55313 28.9593L4.6286 28.5938L10.1259 14.4456L8.30229 7.36339L8.77088 6.95792L9.42522 7.71412C8.77088 6.95792 8.77046 6.95828 8.77088 6.95792L8.7726 6.95643L8.77451 6.9548L8.77889 6.95106L8.78991 6.94177L8.82107 6.91623C8.8459 6.89623 8.87889 6.87039 8.92014 6.83959C9.00264 6.77798 9.11821 6.69649 9.26776 6.60206C9.49296 6.45987 9.795 6.28844 10.1768 6.11144V1.22009H12.1768V5.41981C13.1514 5.17986 14.3411 5.01004 15.7568 5.00845C17.1316 4.95512 18.499 5.11473 19.8143 5.4757V1.22009H21.8143ZM15.8171 7.00763C17.7512 6.92966 19.6708 7.34745 21.4039 8.21923L20.0392 13.5188H11.9525L10.571 8.15343C10.7668 8.04378 11.0217 7.91608 11.3376 7.78657C12.2609 7.40814 13.7202 7.00844 15.7769 7.00844H15.797L15.8171 7.00763ZM11.8546 15.5188L7.22033 27.4459C9.963 28.4018 12.8509 28.8544 15.7512 28.7802L15.7713 28.7797L15.7915 28.78C18.8339 28.8248 21.8618 28.3713 24.7614 27.4384L20.13 15.5188H11.8546Z" fill="#1C1C1C"/>
</svg>
